<?xml version="1.0" encoding="utf-8"?>
<!-- Generator: Adobe Illustrator 21.0.0, SVG Export Plug-In . SVG Version: 6.00 Build 0)  -->
<svg version="1.1" id="Layer_1" xmlns="http://www.w3.org/2000/svg" xmlns:xlink="http://www.w3.org/1999/xlink" x="0px" y="0px"
	 viewBox="0 0 22.8 33.5" style="enable-background:new 0 0 22.8 33.5;" xml:space="preserve">
<style type="text/css">
	.st0{fill:#FFFFFF;}
</style>
<path class="st0" d="M6.6,0H0v1.4v1.4v15.8h2.7V2.7h3.9c0.4,0,0.7,0.3,0.7,0.7v26.7c0,0.4-0.3,0.7-0.7,0.7H0.9v2.7h5.7
	c1.9,0,3.4-1.5,3.4-3.4V3.4C10,1.5,8.5,0,6.6,0z"/>
<path class="st0" d="M20.1,15v15.8h-3.9c-0.4,0-0.7-0.3-0.7-0.7V3.4c0-0.4,0.3-0.7,0.7-0.7H22V0h-5.7c-1.9,0-3.4,1.5-3.4,3.4v26.7
	c0,1.9,1.5,3.4,3.4,3.4h6.6v-1.4v-1.4V15H20.1z"/>
</svg>
