<?xml version="1.0" encoding="utf-8"?>
<!-- Generator: Adobe Illustrator 21.0.0, SVG Export Plug-In . SVG Version: 6.00 Build 0)  -->
<svg version="1.1" id="Layer_1" xmlns="http://www.w3.org/2000/svg" xmlns:xlink="http://www.w3.org/1999/xlink" x="0px" y="0px"
	 viewBox="0 0 138 167.8" style="enable-background:new 0 0 138 167.8;" xml:space="preserve">
<style type="text/css">
	.st0{fill:#BCBEC0;}
</style>
<g>
	<path class="st0" d="M50.4,82.9L18.7,28C9.2,39.4,3.4,54,3.4,70c0,4.4,0.4,8.7,1.3,12.9H50.4z M50.4,82.9"/>
	<path class="st0" d="M48.6,60.3L80.3,5.4c-3.7-0.6-7.4-1-11.3-1c-16.6,0-31.7,6.2-43.3,16.3L48.6,60.3z M48.6,60.3"/>
	<path class="st0" d="M67.2,47.4h63.4C123.7,28.9,108.8,14.2,90,7.9L67.2,47.4z M67.2,47.4"/>
	<path class="st0" d="M89.4,79.7l-31.7,54.9c3.7,0.6,7.4,1,11.3,1c16.6,0,31.7-6.2,43.3-16.4L89.4,79.7z M89.4,79.7"/>
	<path class="st0" d="M70.8,92.5H7.4c6.8,18.6,21.8,33.2,40.6,39.6L70.8,92.5z M70.8,92.5"/>
	<path class="st0" d="M87.6,57.1l31.7,54.9c9.5-11.4,15.3-26,15.3-42c0-4.4-0.4-8.7-1.3-12.9H87.6z M87.6,57.1"/>
</g>
<g>
	<path class="st0" d="M33.3,159.3c0,1.6-1,2.5-2.7,2.5h-1.6v2.1h-1.2v-6.9h2.8C32.3,156.9,33.3,157.8,33.3,159.3z M32.2,159.3
		c0-0.9-0.6-1.3-1.7-1.3h-1.5v2.7h1.5C31.6,160.7,32.2,160.2,32.2,159.3z"/>
	<path class="st0" d="M36.2,156.9v3h3.7v-3H41v6.9h-1.2v-2.9h-3.7v2.9H35v-6.9H36.2z"/>
	<path class="st0" d="M50.1,160.3c0,2-1.6,3.5-3.7,3.5s-3.7-1.5-3.7-3.5c0-2,1.6-3.5,3.7-3.5S50.1,158.4,50.1,160.3z M44,160.3
		c0,1.4,1.1,2.5,2.5,2.5s2.5-1.1,2.5-2.5s-1.1-2.4-2.5-2.4C45.1,157.9,44,159,44,160.3z"/>
	<path class="st0" d="M56.5,156.9v1h-2.2v5.9h-1.2v-5.9H51v-1H56.5z"/>
	<path class="st0" d="M64.5,160.3c0,2-1.6,3.5-3.7,3.5s-3.7-1.5-3.7-3.5c0-2,1.6-3.5,3.7-3.5S64.5,158.4,64.5,160.3z M58.3,160.3
		c0,1.4,1.1,2.5,2.5,2.5s2.5-1.1,2.5-2.5s-1.1-2.4-2.5-2.4C59.4,157.9,58.3,159,58.3,160.3z"/>
	<path class="st0" d="M70.7,160.4h1v2.5c-0.7,0.5-1.7,0.9-2.7,0.9c-2,0-3.6-1.5-3.6-3.5s1.6-3.5,3.7-3.5c1,0,2,0.4,2.7,1l-0.7,0.9
		c-0.5-0.5-1.3-0.8-2-0.8c-1.4,0-2.5,1.1-2.5,2.4c0,1.4,1.1,2.5,2.5,2.5c0.5,0,1.1-0.2,1.6-0.5V160.4z"/>
	<path class="st0" d="M78.4,163.8l-1.3-2.1c-0.1,0-0.2,0-0.3,0h-1.6v2.1H74v-6.9h2.8c1.8,0,2.8,0.9,2.8,2.4c0,1.1-0.5,1.9-1.4,2.2
		l1.5,2.3H78.4z M76.8,160.7c1.1,0,1.7-0.5,1.7-1.4c0-0.9-0.6-1.3-1.7-1.3h-1.6v2.7H76.8z"/>
	<path class="st0" d="M86.1,162.2h-3.5l-0.7,1.6h-1.2l3-6.9H85l3,6.9h-1.2L86.1,162.2z M85.7,161.2l-1.3-3.1l-1.3,3.1H85.7z"/>
	<path class="st0" d="M95,159.3c0,1.6-1,2.5-2.7,2.5h-1.6v2.1h-1.2v-6.9h2.8C94,156.9,95,157.8,95,159.3z M93.9,159.3
		c0-0.9-0.6-1.3-1.7-1.3h-1.5v2.7h1.5C93.3,160.7,93.9,160.2,93.9,159.3z"/>
	<path class="st0" d="M97.9,156.9v3h3.7v-3h1.2v6.9h-1.2v-2.9h-3.7v2.9h-1.2v-6.9H97.9z"/>
	<path class="st0" d="M108,161.5v2.3h-1.2v-2.3l-2.6-4.6h1.2l2,3.4l1.9-3.4h1.2L108,161.5z"/>
</g>
</svg>
