<?xml version="1.0" encoding="utf-8"?>
<!-- Generator: Adobe Illustrator 21.0.0, SVG Export Plug-In . SVG Version: 6.00 Build 0)  -->
<svg version="1.1" id="Layer_1" xmlns="http://www.w3.org/2000/svg" xmlns:xlink="http://www.w3.org/1999/xlink" x="0px" y="0px"
	 viewBox="0 0 138 167.8" style="enable-background:new 0 0 138 167.8;" xml:space="preserve">
<style type="text/css">
	.st0{fill:#BCBEC0;}
</style>
<g>
	<path class="st0" d="M21.2,156.9v3h3.7v-3H26v6.9h-1.2v-2.9h-3.7v2.9H20v-6.9H21.2z"/>
	<path class="st0" d="M33.3,156.9v1h-3.8v1.9h3.4v1h-3.4v1.9h3.9v1h-5v-6.9H33.3z"/>
	<path class="st0" d="M39.9,162.2h-3.5l-0.7,1.6h-1.2l3-6.9h1.2l3,6.9h-1.2L39.9,162.2z M39.5,161.2l-1.3-3.1l-1.3,3.1H39.5z"/>
	<path class="st0" d="M44.5,156.9v5.8h3v1.1h-4.1v-6.9H44.5z"/>
	<path class="st0" d="M53.9,156.9v1h-2.2v5.9h-1.2v-5.9h-2.2v-1H53.9z"/>
	<path class="st0" d="M56.6,156.9v3h3.7v-3h1.2v6.9h-1.2v-2.9h-3.7v2.9h-1.2v-6.9H56.6z"/>
	<path class="st0" d="M70.4,155.8l-3.1,9.2h-1l3.1-9.2H70.4z"/>
	<path class="st0" d="M79.4,156.9l0,1H76v2h3.1v1H76v2.8h-1.2v-6.9H79.4z"/>
	<path class="st0" d="M82.2,156.9v6.9h-1.2v-6.9H82.2z"/>
	<path class="st0" d="M89.3,156.9v1h-2.2v5.9H86v-5.9h-2.2v-1H89.3z"/>
	<path class="st0" d="M92.1,156.9l3.7,5v-5h1.1v6.9h-1.1l-3.7-4.9v4.9h-1.2v-6.9H92.1z"/>
	<path class="st0" d="M104.2,156.9v1h-3.8v1.9h3.4v1h-3.4v1.9h3.9v1h-5v-6.9H104.2z"/>
	<path class="st0" d="M108.5,157.9c-0.7,0-1.1,0.3-1.1,0.7c0,1.5,3.7,0.7,3.7,3.2c0,1.2-1.1,2-2.6,2c-1.1,0-2.1-0.4-2.8-1.1l0.5-1
		c0.7,0.7,1.6,1,2.3,1c0.8,0,1.3-0.3,1.3-0.8c0-1.5-3.7-0.7-3.7-3.1c0-1.2,1-1.9,2.5-1.9c0.9,0,1.8,0.3,2.4,0.7l-0.5,1
		C109.8,158.1,109.1,157.9,108.5,157.9z"/>
	<path class="st0" d="M115.3,157.9c-0.7,0-1.1,0.3-1.1,0.7c0,1.5,3.7,0.7,3.7,3.2c0,1.2-1.1,2-2.6,2c-1.1,0-2.1-0.4-2.8-1.1l0.5-1
		c0.7,0.7,1.6,1,2.3,1c0.8,0,1.3-0.3,1.3-0.8c0-1.5-3.7-0.7-3.7-3.1c0-1.2,1-1.9,2.5-1.9c0.9,0,1.8,0.3,2.4,0.7l-0.5,1
		C116.5,158.1,115.8,157.9,115.3,157.9z"/>
</g>
<g>
	<g>
		<g>
			<path class="st0" d="M69.3,5.6C33.1,5.4,3.6,34.6,3.4,70.8c-0.2,36.2,29,65.7,65.2,65.9c36.2,0.2,65.7-29,65.9-65.2
				C134.7,35.2,105.5,5.7,69.3,5.6z M68.7,124C39.5,123.8,16,100,16.1,70.9c0.1-29.2,23.9-52.7,53.1-52.6
				c29.2,0.1,52.7,23.9,52.6,53.1C121.7,100.6,97.9,124.1,68.7,124z"/>
		</g>
		<path class="st0" d="M64.6,77c-2.8,2.7-23.2,22.9-24.9,24.7c-1.6,1.7-1.5,4.3-0.8,5.8c1.2,2.4,4.5,5.2,10.6,7.9
			c5.3,2.3,11.2,3.3,14.1,2.7c3.1-0.7,4-3.2,4-4.9c0-1.7,0.1-30,0.2-34.9C67.9,74.7,67.4,74.3,64.6,77z M74.8,66.9
			c-2.5,2.4-2.4,3.1,1.5,3.1c3.9,0,32.7,0.2,35,0.1c2.4-0.1,4.1-1.9,4.6-3.5c0.8-2.5,0.5-6.9-1.9-13.1c-2.1-5.4-5.6-10.3-8.1-11.9
			c-2.7-1.7-5.1-0.6-6.3,0.7C98.4,43.6,78.3,63.5,74.8,66.9z M63.2,75.3c2.5-2.4,2.4-3.1-1.5-3.1c-3.9,0-32.7-0.2-35-0.1
			c-2.4,0.1-4.1,1.9-4.6,3.5c-0.8,2.5-0.5,6.9,1.9,13.1c2.1,5.4,5.6,10.3,8.1,11.9c2.7,1.7,5.1,0.6,6.3-0.7
			C39.6,98.6,59.7,78.8,63.2,75.3z M73.4,65.2c2.8-2.7,23.2-22.9,24.9-24.7c1.6-1.7,1.5-4.3,0.8-5.8c-1.2-2.3-4.5-5.2-10.6-7.9
			c-5.3-2.3-11.2-3.3-14.1-2.7c-3.1,0.7-4,3.2-4,4.9c0,1.7-0.1,30-0.2,34.9C70.1,67.5,70.6,67.9,73.4,65.2z M26.7,69.7
			c2.4,0.1,31.1,0.2,35,0.2c3.9,0,3.9-0.6,1.5-3.1c-3.5-3.5-23.3-23.6-24.6-24.8c-1.2-1.2-3.6-2.4-6.3-0.7
			c-2.5,1.5-6.1,6.4-8.2,11.8c-2.5,6.2-2.9,10.5-2.1,13C22.6,67.8,24.3,69.6,26.7,69.7z M111.3,72.5c-2.4-0.1-31.1-0.2-35-0.2
			c-3.9,0-3.9,0.6-1.5,3.1c3.5,3.5,23.3,23.6,24.6,24.8c1.2,1.2,3.6,2.4,6.3,0.7c2.5-1.5,6.1-6.4,8.2-11.8c2.5-6.2,2.9-10.5,2.1-13
			C115.4,74.5,113.7,72.6,111.3,72.5z M64.1,24.2c-2.9-0.7-8.8,0.3-14.2,2.5c-6.1,2.6-9.5,5.4-10.7,7.8c-0.8,1.5-0.8,4,0.7,5.8
			c1.6,1.8,21.9,22.2,24.6,24.9c2.7,2.8,3.2,2.3,3.2-1.1c0-4.9,0.2-33.2,0.2-34.9C68.1,27.4,67.3,24.9,64.1,24.2z M73.3,77.1
			c-2.7-2.8-3.2-2.3-3.2,1.1c0,4.9-0.2,33.2-0.2,34.9c0,1.7,0.8,4.2,3.9,5c2.9,0.7,8.8-0.3,14.2-2.5c6.1-2.6,9.5-5.4,10.7-7.8
			c0.8-1.5,0.8-4-0.7-5.8C96.3,100.2,76.1,79.8,73.3,77.1z"/>
	</g>
</g>
</svg>
