<?xml version="1.0" encoding="utf-8"?>
<!-- Generator: Adobe Illustrator 21.0.0, SVG Export Plug-In . SVG Version: 6.00 Build 0)  -->
<svg version="1.1" id="Layer_1" xmlns="http://www.w3.org/2000/svg" xmlns:xlink="http://www.w3.org/1999/xlink" x="0px" y="0px"
	 viewBox="0 0 138 167.8" style="enable-background:new 0 0 138 167.8;" xml:space="preserve">
<style type="text/css">
	.st0{fill:#F05A28;}
	.st1{fill:#F6932E;}
</style>
<g>
	<path class="st0" d="M113.2,39.1C85.2,7.6,32.9-8.2,13,44C-6.9,96.2,33.3,128.8,67,130.8c33.7,2.1,50.1-17,50.1-17
		C135,95.5,131.8,60,113.2,39.1z M111.5,106c-16,16-46.4,11.5-68-10.1c-21.6-21.6-26.1-52-10.1-68c16-16,46.4-11.4,68,10.1
		C123,59.5,127.5,90,111.5,106z"/>
</g>
<g>
	<g>
		<path class="st1" d="M65.5,66c0,0-8.4-5.7-16-14.3c-7.6-8.6-13.4-18.9-13.4-18.9s6.1-14,32.6-9C63.3,32.3,60.8,51.6,65.5,66z"/>
		<path class="st1" d="M67.2,60c0,0-4.1-23.2,6-34.4c23.6,8.6,34.1,30.4,34.1,30.4S88.3,47,67.2,60z"/>
		<path class="st1" d="M73.7,60.5c0,0,10.9-8,35.2-1.2c11.7,23.1,1.7,39,1.7,39S97.8,73.1,73.7,60.5z"/>
		<path class="st1" d="M75.3,109c0,0,11.3-13.6,3.9-42.4c13.9,8.4,29.7,31.3,29.9,33.8C103.2,108.5,92.3,113.4,75.3,109z"/>
		<path class="st1" d="M72.4,108.2c0,0-19.7-6.6-34.6-30.5c28.6,6.7,40.1-4.9,40.1-4.9S82.2,93.8,72.4,108.2z"/>
		<path class="st1" d="M35.3,74c0,0-11.1-24.3-0.8-39.1c20,31.7,36.2,37.7,36.2,37.7S59.8,81.2,35.3,74z"/>
	</g>
</g>
</svg>
