<?xml version="1.0" encoding="utf-8"?>
<!-- Generator: Adobe Illustrator 21.0.0, SVG Export Plug-In . SVG Version: 6.00 Build 0)  -->
<svg version="1.1" id="Layer_1" xmlns="http://www.w3.org/2000/svg" xmlns:xlink="http://www.w3.org/1999/xlink" x="0px" y="0px"
	 viewBox="0 0 199 25.5" style="enable-background:new 0 0 199 25.5;" xml:space="preserve">
<style type="text/css">
	.st0{fill:#FFFFFF;}
	.st1{fill:url(#SVGID_1_);}
	.st2{fill:url(#SVGID_2_);}
	.st3{fill:url(#SVGID_3_);}
	.st4{fill:url(#SVGID_4_);}
	.st5{fill:url(#SVGID_5_);}
	.st6{fill:url(#SVGID_6_);}
	.st7{fill:url(#SVGID_7_);}
	.st8{fill:url(#SVGID_8_);}
	.st9{fill:url(#SVGID_9_);}
	.st10{fill:url(#SVGID_10_);}
	.st11{fill:url(#SVGID_11_);}
	.st12{fill:url(#SVGID_12_);}
	.st13{fill:url(#SVGID_13_);}
	.st14{fill:url(#SVGID_14_);}
	.st15{fill:url(#SVGID_15_);}
	.st16{fill:url(#SVGID_16_);}
	.st17{fill:url(#SVGID_17_);}
	.st18{fill:url(#SVGID_18_);}
	.st19{fill:url(#SVGID_19_);}
	.st20{fill:url(#SVGID_20_);}
	.st21{fill:url(#SVGID_21_);}
	.st22{fill:url(#SVGID_22_);}
	.st23{fill:url(#SVGID_23_);}
	.st24{fill:url(#SVGID_24_);}
	.st25{fill:url(#SVGID_25_);}
	.st26{fill:url(#SVGID_26_);}
	.st27{fill:url(#SVGID_27_);}
	.st28{fill:url(#SVGID_28_);}
</style>
<rect x="0" y="0.2" class="st0" width="199" height="25.5"/>
<g>
	<linearGradient id="SVGID_1_" gradientUnits="userSpaceOnUse" x1="8.5633" y1="11.7565" x2="184.0647" y2="11.7565">
		<stop  offset="0" style="stop-color:#F05A28"/>
		<stop  offset="1" style="stop-color:#F6932E"/>
	</linearGradient>
	<path class="st1" d="M14.6,8.7c0.1,0.2,0.2,0.3,0.2,0.5c0,0.1,0,0.2-0.2,0.3c-0.3,0.1-0.6,0.2-1,0.2c-0.3-0.8-0.8-1.2-1.7-1.2
		c-0.8,0-1.4,0.5-1.4,1.2c0,0.6,0.5,1.1,2,1.5c1.6,0.5,2.4,1.3,2.4,2.5c0,1.4-1.2,2.3-3,2.3c-1.5,0-2.5-0.6-2.5-1
		c0-0.2,0.1-0.5,0.2-0.6c0.6,0.3,1.4,0.4,2.1,0.4c1.2,0,1.8-0.4,1.8-1.1s-0.4-1-1.6-1.3c-1.8-0.5-2.8-1.3-2.8-2.7
		c0-1.4,1.2-2.4,2.8-2.4C13.2,7.4,14.2,8.1,14.6,8.7z"/>
	<linearGradient id="SVGID_2_" gradientUnits="userSpaceOnUse" x1="8.5633" y1="11.5766" x2="184.0647" y2="11.5766">
		<stop  offset="0" style="stop-color:#F05A28"/>
		<stop  offset="1" style="stop-color:#F6932E"/>
	</linearGradient>
	<path class="st2" d="M16.8,16c-0.3,0-0.4-0.1-0.4-0.3V7.2c0.3-0.1,0.6-0.1,0.9-0.1c0.3,0,0.4,0.1,0.4,0.3v2.8
		c0.5-0.5,1.3-0.9,2.1-0.9c1.5,0,2.3,1,2.3,2.8v2.1c0,0.5,0.1,0.6,0.4,0.6h0.3c0,0.1,0.1,0.3,0.1,0.5c0,0.3-0.3,0.6-0.9,0.6
		c-0.6,0-1.2-0.3-1.2-1.6v-2.4c0-1.1-0.4-1.6-1.4-1.6c-0.6,0-1.3,0.3-1.7,0.6V16H16.8z"/>
	<linearGradient id="SVGID_3_" gradientUnits="userSpaceOnUse" x1="8.5633" y1="12.7516" x2="184.0647" y2="12.7516">
		<stop  offset="0" style="stop-color:#F05A28"/>
		<stop  offset="1" style="stop-color:#F6932E"/>
	</linearGradient>
	<path class="st3" d="M27,16.1c-1.7,0-3.2-1.2-3.2-3.3c0-2.1,1.5-3.3,3.2-3.3s3.2,1.2,3.2,3.3C30.1,14.9,28.7,16.1,27,16.1z M27,15
		c1,0,1.8-0.7,1.8-2.2c0-1.5-0.9-2.3-1.9-2.3c-1,0-1.8,0.7-1.8,2.2S26,15,27,15z"/>
	<linearGradient id="SVGID_4_" gradientUnits="userSpaceOnUse" x1="8.5633" y1="12.7516" x2="184.0647" y2="12.7516">
		<stop  offset="0" style="stop-color:#F05A28"/>
		<stop  offset="1" style="stop-color:#F6932E"/>
	</linearGradient>
	<path class="st4" d="M34.5,16.1c-1.7,0-3.2-1.2-3.2-3.3c0-2.1,1.5-3.3,3.2-3.3s3.2,1.2,3.2,3.3C37.7,14.9,36.2,16.1,34.5,16.1z
		 M34.5,15c1,0,1.8-0.7,1.8-2.2c0-1.5-0.9-2.3-1.9-2.3c-1,0-1.8,0.7-1.8,2.2S33.6,15,34.5,15z"/>
	<linearGradient id="SVGID_5_" gradientUnits="userSpaceOnUse" x1="8.5633" y1="11.8644" x2="184.0647" y2="11.8644">
		<stop  offset="0" style="stop-color:#F05A28"/>
		<stop  offset="1" style="stop-color:#F6932E"/>
	</linearGradient>
	<path class="st5" d="M39.6,13.8v-3.2h-0.8c-0.2,0-0.3-0.1-0.3-0.4c0-0.2,0-0.5,0.1-0.7h1V7.8c0.3-0.1,0.6-0.1,0.9-0.1
		c0.3,0,0.4,0.1,0.4,0.3v1.6h1.9c0.2,0,0.3,0.1,0.3,0.4v0.7h-2.2v3.2c0,0.8,0.5,1.1,1.1,1.1c0.3,0,0.7-0.1,1-0.2
		c0.1,0.1,0.2,0.4,0.2,0.6c0,0.3-0.5,0.7-1.5,0.7C40.4,16.1,39.6,15.3,39.6,13.8z"/>
	<linearGradient id="SVGID_6_" gradientUnits="userSpaceOnUse" x1="8.5633" y1="11.5048" x2="184.0647" y2="11.5048">
		<stop  offset="0" style="stop-color:#F05A28"/>
		<stop  offset="1" style="stop-color:#F6932E"/>
	</linearGradient>
	<path class="st6" d="M50.1,16h-0.9c-0.3,0-0.4-0.1-0.4-0.3v-5h-0.9c-0.2,0-0.3-0.1-0.3-0.4c0-0.2,0-0.5,0.1-0.7h1.1V9.3
		c0-1.5,0.8-2.2,2-2.2c0.8,0,1.5,0.4,1.5,0.7c0,0.2-0.1,0.5-0.2,0.6c-0.3-0.1-0.6-0.2-1-0.2c-0.8,0-1.1,0.3-1.1,1.1v0.3h1.8
		c0.2,0,0.3,0.1,0.3,0.4v0.7h-2.1V16z"/>
	<linearGradient id="SVGID_7_" gradientUnits="userSpaceOnUse" x1="8.5633" y1="12.7516" x2="184.0647" y2="12.7516">
		<stop  offset="0" style="stop-color:#F05A28"/>
		<stop  offset="1" style="stop-color:#F6932E"/>
	</linearGradient>
	<path class="st7" d="M56,16.1c-1.7,0-3.2-1.2-3.2-3.3c0-2.1,1.5-3.3,3.2-3.3c1.7,0,3.2,1.2,3.2,3.3C59.1,14.9,57.7,16.1,56,16.1z
		 M56,15c1,0,1.8-0.7,1.8-2.2c0-1.5-0.9-2.3-1.9-2.3c-1,0-1.8,0.7-1.8,2.2S55.1,15,56,15z"/>
	<linearGradient id="SVGID_8_" gradientUnits="userSpaceOnUse" x1="8.5633" y1="12.6799" x2="184.0647" y2="12.6799">
		<stop  offset="0" style="stop-color:#F05A28"/>
		<stop  offset="1" style="stop-color:#F6932E"/>
	</linearGradient>
	<path class="st8" d="M65.2,10.1c0,0.1,0,0.1-0.1,0.2c-0.1,0.2-0.3,0.4-0.6,0.5c-0.3-0.2-0.7-0.3-1.1-0.3c-0.8,0-1.3,0.5-1.5,1.3V16
		h-0.9c-0.3,0-0.4-0.1-0.4-0.3V9.6c0.3-0.1,0.6-0.1,0.9-0.1c0.3,0,0.4,0.1,0.4,0.3v0.7c0.4-0.6,1-1.1,1.8-1.1c0.4,0,0.8,0.1,1,0.2
		C65.1,9.8,65.2,9.9,65.2,10.1z"/>
	<linearGradient id="SVGID_9_" gradientUnits="userSpaceOnUse" x1="8.5633" y1="12.7516" x2="184.0647" y2="12.7516">
		<stop  offset="0" style="stop-color:#F05A28"/>
		<stop  offset="1" style="stop-color:#F6932E"/>
	</linearGradient>
	<path class="st9" d="M75.7,15c0,0.1,0.1,0.3,0.1,0.5c0,0.3-0.3,0.6-0.9,0.6c-0.5,0-1-0.3-1.1-1c-0.4,0.7-1.1,1.1-2,1.1
		c-1.3,0-2.2-0.8-2.2-2c0-1.3,1-2.1,2.6-2.1c0.5,0,1.2,0.1,1.6,0.3v-0.4c0-0.9-0.6-1.4-1.8-1.4c-0.6,0-1.1,0.1-1.6,0.4
		c-0.1-0.1-0.2-0.4-0.2-0.6c0-0.4,0.9-0.9,2.1-0.9C74,9.4,75,10.3,75,12v2.4c0,0.5,0.2,0.6,0.5,0.6H75.7z M73.7,14v-0.7
		c-0.3-0.1-1-0.2-1.4-0.2c-0.9,0-1.5,0.3-1.5,1c0,0.6,0.5,0.9,1.2,0.9C72.7,15,73.4,14.6,73.7,14z"/>
	<linearGradient id="SVGID_10_" gradientUnits="userSpaceOnUse" x1="8.5633" y1="11.5766" x2="184.0647" y2="11.5766">
		<stop  offset="0" style="stop-color:#F05A28"/>
		<stop  offset="1" style="stop-color:#F6932E"/>
	</linearGradient>
	<path class="st10" d="M81.1,16c-0.3,0-0.4-0.1-0.4-0.3V7.2c0.3-0.1,0.6-0.1,0.9-0.1c0.3,0,0.4,0.1,0.4,0.3v2.8
		c0.5-0.5,1.3-0.9,2.1-0.9c1.5,0,2.3,1,2.3,2.8v2.1c0,0.5,0.1,0.6,0.4,0.6H87c0,0.1,0.1,0.3,0.1,0.5c0,0.3-0.3,0.6-0.9,0.6
		c-0.6,0-1.2-0.3-1.2-1.6v-2.4c0-1.1-0.4-1.6-1.4-1.6c-0.6,0-1.3,0.3-1.7,0.6V16H81.1z"/>
	<linearGradient id="SVGID_11_" gradientUnits="userSpaceOnUse" x1="8.5633" y1="12.7516" x2="184.0647" y2="12.7516">
		<stop  offset="0" style="stop-color:#F05A28"/>
		<stop  offset="1" style="stop-color:#F6932E"/>
	</linearGradient>
	<path class="st11" d="M93.2,15.2c0,0.4-0.8,0.9-2,0.9c-1.9,0-3.2-1.4-3.2-3.3c0-2.1,1.5-3.4,3.2-3.4c1.5,0,2.6,1,2.6,2.3
		c0,0.4-0.1,0.8-0.2,1c-0.2,0.4-0.4,0.5-0.9,0.5h-3.3c0.1,1.2,1,1.7,2.1,1.7c0.6,0,1.1-0.1,1.6-0.4C93.1,14.8,93.2,15,93.2,15.2z
		 M89.4,12.2h3.1c0.1-0.1,0.1-0.3,0.1-0.4c0-0.8-0.5-1.3-1.4-1.3C90.2,10.5,89.5,11.1,89.4,12.2z"/>
	<linearGradient id="SVGID_12_" gradientUnits="userSpaceOnUse" x1="8.5633" y1="12.7516" x2="184.0647" y2="12.7516">
		<stop  offset="0" style="stop-color:#F05A28"/>
		<stop  offset="1" style="stop-color:#F6932E"/>
	</linearGradient>
	<path class="st12" d="M101.1,15c0,0.1,0.1,0.3,0.1,0.5c0,0.3-0.3,0.6-0.9,0.6c-0.5,0-1-0.3-1.1-1c-0.4,0.7-1.1,1.1-2,1.1
		c-1.3,0-2.2-0.8-2.2-2c0-1.3,1-2.1,2.6-2.1c0.5,0,1.2,0.1,1.6,0.3v-0.4c0-0.9-0.6-1.4-1.8-1.4c-0.6,0-1.1,0.1-1.6,0.4
		c-0.1-0.1-0.2-0.4-0.2-0.6c0-0.4,0.9-0.9,2.1-0.9c1.7,0,2.7,0.9,2.7,2.6v2.4c0,0.5,0.2,0.6,0.5,0.6H101.1z M99.1,14v-0.7
		c-0.3-0.1-1-0.2-1.4-0.2c-0.9,0-1.5,0.3-1.5,1c0,0.6,0.5,0.9,1.2,0.9C98.1,15,98.8,14.6,99.1,14z"/>
	<linearGradient id="SVGID_13_" gradientUnits="userSpaceOnUse" x1="8.5633" y1="11.5766" x2="184.0647" y2="11.5766">
		<stop  offset="0" style="stop-color:#F05A28"/>
		<stop  offset="1" style="stop-color:#F6932E"/>
	</linearGradient>
	<path class="st13" d="M102.4,14.1V7.2c0.3-0.1,0.6-0.1,0.9-0.1c0.3,0,0.4,0.1,0.4,0.3v6.7c0,0.6,0.2,0.8,0.7,0.8
		c0.2,0,0.5,0,0.7-0.1c0.1,0.1,0.2,0.3,0.2,0.5c0,0.3-0.4,0.7-1.2,0.7C102.9,16,102.4,15.3,102.4,14.1z"/>
	<linearGradient id="SVGID_14_" gradientUnits="userSpaceOnUse" x1="8.5633" y1="11.8644" x2="184.0647" y2="11.8644">
		<stop  offset="0" style="stop-color:#F05A28"/>
		<stop  offset="1" style="stop-color:#F6932E"/>
	</linearGradient>
	<path class="st14" d="M106.6,13.8v-3.2h-0.8c-0.2,0-0.3-0.1-0.3-0.4c0-0.2,0-0.5,0.1-0.7h1V7.8c0.3-0.1,0.6-0.1,0.9-0.1
		c0.3,0,0.4,0.1,0.4,0.3v1.6h1.9c0.2,0,0.3,0.1,0.3,0.4v0.7h-2.2v3.2c0,0.8,0.5,1.1,1.1,1.1c0.3,0,0.7-0.1,1-0.2
		c0.1,0.1,0.2,0.4,0.2,0.6c0,0.3-0.5,0.7-1.5,0.7C107.4,16.1,106.6,15.3,106.6,13.8z"/>
	<linearGradient id="SVGID_15_" gradientUnits="userSpaceOnUse" x1="8.5633" y1="11.5766" x2="184.0647" y2="11.5766">
		<stop  offset="0" style="stop-color:#F05A28"/>
		<stop  offset="1" style="stop-color:#F6932E"/>
	</linearGradient>
	<path class="st15" d="M112,16c-0.3,0-0.4-0.1-0.4-0.3V7.2c0.3-0.1,0.6-0.1,0.9-0.1c0.3,0,0.4,0.1,0.4,0.3v2.8
		c0.5-0.5,1.3-0.9,2.1-0.9c1.5,0,2.3,1,2.3,2.8v2.1c0,0.5,0.1,0.6,0.4,0.6h0.3c0,0.1,0.1,0.3,0.1,0.5c0,0.3-0.3,0.6-0.9,0.6
		c-0.6,0-1.2-0.3-1.2-1.6v-2.4c0-1.1-0.4-1.6-1.4-1.6c-0.6,0-1.3,0.3-1.7,0.6V16H112z"/>
	<linearGradient id="SVGID_16_" gradientUnits="userSpaceOnUse" x1="8.5633" y1="11.5766" x2="184.0647" y2="11.5766">
		<stop  offset="0" style="stop-color:#F05A28"/>
		<stop  offset="1" style="stop-color:#F6932E"/>
	</linearGradient>
	<path class="st16" d="M119.2,7.9c0-0.5,0.3-0.8,0.7-0.8c0.4,0,0.8,0.3,0.8,0.8c0,0.5-0.3,0.8-0.7,0.8
		C119.6,8.7,119.2,8.4,119.2,7.9z M119.4,9.6c0.3-0.1,0.6-0.1,0.9-0.1c0.3,0,0.4,0.1,0.4,0.3v4.6c0,0.5,0.1,0.6,0.4,0.6h0.3
		c0,0.1,0.1,0.3,0.1,0.5c0,0.3-0.3,0.6-0.9,0.6c-0.6,0-1.2-0.3-1.2-1.6V9.6z"/>
	<linearGradient id="SVGID_17_" gradientUnits="userSpaceOnUse" x1="8.5633" y1="12.7516" x2="184.0647" y2="12.7516">
		<stop  offset="0" style="stop-color:#F05A28"/>
		<stop  offset="1" style="stop-color:#F6932E"/>
	</linearGradient>
	<path class="st17" d="M127.7,15.2c0,0.4-0.8,0.9-2,0.9c-1.9,0-3.2-1.4-3.2-3.3c0-2.1,1.5-3.4,3.2-3.4c1.5,0,2.6,1,2.6,2.3
		c0,0.4-0.1,0.8-0.2,1c-0.2,0.4-0.4,0.5-0.9,0.5h-3.3c0.1,1.2,1,1.7,2.1,1.7c0.6,0,1.1-0.1,1.6-0.4C127.6,14.8,127.7,15,127.7,15.2z
		 M123.8,12.2h3.1c0.1-0.1,0.1-0.3,0.1-0.4c0-0.8-0.5-1.3-1.4-1.3C124.7,10.5,124,11.1,123.8,12.2z"/>
	<linearGradient id="SVGID_18_" gradientUnits="userSpaceOnUse" x1="8.5633" y1="12.6799" x2="184.0647" y2="12.6799">
		<stop  offset="0" style="stop-color:#F05A28"/>
		<stop  offset="1" style="stop-color:#F6932E"/>
	</linearGradient>
	<path class="st18" d="M134.4,10.1c0,0.1,0,0.1-0.1,0.2c-0.1,0.2-0.3,0.4-0.6,0.5c-0.3-0.2-0.7-0.3-1.1-0.3c-0.8,0-1.3,0.5-1.5,1.3
		V16h-0.9c-0.3,0-0.4-0.1-0.4-0.3V9.6c0.3-0.1,0.6-0.1,0.9-0.1c0.3,0,0.4,0.1,0.4,0.3v0.7c0.4-0.6,1-1.1,1.8-1.1
		c0.4,0,0.8,0.1,1,0.2C134.3,9.8,134.4,9.9,134.4,10.1z"/>
	<linearGradient id="SVGID_19_" gradientUnits="userSpaceOnUse" x1="8.5633" y1="11.5766" x2="184.0647" y2="11.5766">
		<stop  offset="0" style="stop-color:#F05A28"/>
		<stop  offset="1" style="stop-color:#F6932E"/>
	</linearGradient>
	<path class="st19" d="M139.1,14.1V7.2c0.3-0.1,0.6-0.1,0.9-0.1c0.3,0,0.4,0.1,0.4,0.3v6.7c0,0.6,0.2,0.8,0.7,0.8
		c0.2,0,0.5,0,0.7-0.1c0.1,0.1,0.2,0.3,0.2,0.5c0,0.3-0.4,0.7-1.2,0.7C139.6,16,139.1,15.3,139.1,14.1z"/>
	<linearGradient id="SVGID_20_" gradientUnits="userSpaceOnUse" x1="8.5633" y1="11.5766" x2="184.0647" y2="11.5766">
		<stop  offset="0" style="stop-color:#F05A28"/>
		<stop  offset="1" style="stop-color:#F6932E"/>
	</linearGradient>
	<path class="st20" d="M142.8,7.9c0-0.5,0.3-0.8,0.7-0.8c0.4,0,0.8,0.3,0.8,0.8c0,0.5-0.3,0.8-0.7,0.8
		C143.2,8.7,142.8,8.4,142.8,7.9z M143,9.6c0.3-0.1,0.6-0.1,0.9-0.1c0.3,0,0.4,0.1,0.4,0.3v4.6c0,0.5,0.1,0.6,0.4,0.6h0.3
		c0,0.1,0.1,0.3,0.1,0.5c0,0.3-0.3,0.6-0.9,0.6c-0.6,0-1.2-0.3-1.2-1.6V9.6z"/>
	<linearGradient id="SVGID_21_" gradientUnits="userSpaceOnUse" x1="8.5633" y1="11.5048" x2="184.0647" y2="11.5048">
		<stop  offset="0" style="stop-color:#F05A28"/>
		<stop  offset="1" style="stop-color:#F6932E"/>
	</linearGradient>
	<path class="st21" d="M148.4,16h-0.9c-0.3,0-0.4-0.1-0.4-0.3v-5h-0.9c-0.2,0-0.3-0.1-0.3-0.4c0-0.2,0-0.5,0.1-0.7h1.1V9.3
		c0-1.5,0.8-2.2,2-2.2c0.8,0,1.5,0.4,1.5,0.7c0,0.2-0.1,0.5-0.2,0.6c-0.3-0.1-0.6-0.2-1-0.2c-0.8,0-1.1,0.3-1.1,1.1v0.3h1.8
		c0.2,0,0.3,0.1,0.3,0.4v0.7h-2.1V16z"/>
	<linearGradient id="SVGID_22_" gradientUnits="userSpaceOnUse" x1="8.5633" y1="12.7516" x2="184.0647" y2="12.7516">
		<stop  offset="0" style="stop-color:#F05A28"/>
		<stop  offset="1" style="stop-color:#F6932E"/>
	</linearGradient>
	<path class="st22" d="M156.3,15.2c0,0.4-0.8,0.9-2,0.9c-1.9,0-3.2-1.4-3.2-3.3c0-2.1,1.5-3.4,3.2-3.4c1.5,0,2.6,1,2.6,2.3
		c0,0.4-0.1,0.8-0.2,1c-0.2,0.4-0.4,0.5-0.9,0.5h-3.3c0.1,1.2,1,1.7,2.1,1.7c0.6,0,1.1-0.1,1.6-0.4C156.2,14.8,156.3,15,156.3,15.2z
		 M152.5,12.2h3.1c0.1-0.1,0.1-0.3,0.1-0.4c0-0.8-0.5-1.3-1.4-1.3C153.3,10.5,152.6,11.1,152.5,12.2z"/>
	<linearGradient id="SVGID_23_" gradientUnits="userSpaceOnUse" x1="8.5633" y1="12.7516" x2="184.0647" y2="12.7516">
		<stop  offset="0" style="stop-color:#F05A28"/>
		<stop  offset="1" style="stop-color:#F6932E"/>
	</linearGradient>
	<path class="st23" d="M160.5,10.5c-0.7,0-1,0.3-1,0.8c0,0.6,0.4,0.8,1.4,1.1c1.4,0.3,2,0.9,2,1.9c0,1.1-0.8,1.9-2.4,1.9
		c-1.2,0-2.1-0.5-2.1-0.9c0-0.2,0.1-0.5,0.2-0.6c0.5,0.3,1.2,0.4,1.8,0.4c0.8,0,1.2-0.2,1.2-0.7c0-0.4-0.3-0.7-1.1-0.9
		c-1.6-0.4-2.2-1.1-2.2-2.1c0-1.1,0.9-1.9,2.3-1.9c1,0,1.8,0.4,2.2,1.1c0,0.1,0.1,0.2,0.1,0.3c0,0.1-0.1,0.2-0.3,0.3
		c-0.2,0.1-0.6,0.2-0.9,0.3C161.5,10.8,161.1,10.5,160.5,10.5z"/>
	<linearGradient id="SVGID_24_" gradientUnits="userSpaceOnUse" x1="8.5633" y1="11.8644" x2="184.0647" y2="11.8644">
		<stop  offset="0" style="stop-color:#F05A28"/>
		<stop  offset="1" style="stop-color:#F6932E"/>
	</linearGradient>
	<path class="st24" d="M164.8,13.8v-3.2H164c-0.2,0-0.3-0.1-0.3-0.4c0-0.2,0-0.5,0.1-0.7h1V7.8c0.3-0.1,0.6-0.1,0.9-0.1
		c0.3,0,0.4,0.1,0.4,0.3v1.6h1.9c0.2,0,0.3,0.1,0.3,0.4v0.7h-2.2v3.2c0,0.8,0.5,1.1,1.1,1.1c0.3,0,0.7-0.1,1-0.2
		c0.1,0.1,0.2,0.4,0.2,0.6c0,0.3-0.5,0.7-1.5,0.7C165.6,16.1,164.8,15.3,164.8,13.8z"/>
	<linearGradient id="SVGID_25_" gradientUnits="userSpaceOnUse" x1="8.5633" y1="14.1974" x2="184.0647" y2="14.1974">
		<stop  offset="0" style="stop-color:#F05A28"/>
		<stop  offset="1" style="stop-color:#F6932E"/>
	</linearGradient>
	<path class="st25" d="M169.8,17.3c0-0.5,0.3-1.1,1-1.5c-0.7-0.4-1.1-1.2-1.1-2.4V9.6c0.3-0.1,0.6-0.1,0.9-0.1
		c0.3,0,0.4,0.1,0.4,0.3v3.6c0,1.1,0.4,1.6,1.4,1.6c0.6,0,1.2-0.2,1.7-0.6V9.5h0.9c0.3,0,0.4,0.1,0.4,0.3V16c0,1.5-1.1,2.9-3.2,2.9
		C170.6,18.9,169.8,18.2,169.8,17.3z M171.6,16.1c-0.4,0.3-0.5,0.6-0.5,1c0,0.4,0.4,0.7,1.1,0.7c1,0,1.9-0.6,1.9-1.7v-0.9
		c-0.5,0.5-1.3,0.9-2.1,0.9C171.9,16.1,171.7,16.1,171.6,16.1z"/>
	<linearGradient id="SVGID_26_" gradientUnits="userSpaceOnUse" x1="8.5633" y1="11.5766" x2="184.0647" y2="11.5766">
		<stop  offset="0" style="stop-color:#F05A28"/>
		<stop  offset="1" style="stop-color:#F6932E"/>
	</linearGradient>
	<path class="st26" d="M177.3,14.1V7.2c0.3-0.1,0.6-0.1,0.9-0.1c0.3,0,0.4,0.1,0.4,0.3v6.7c0,0.6,0.2,0.8,0.7,0.8
		c0.2,0,0.5,0,0.7-0.1c0.1,0.1,0.2,0.3,0.2,0.5c0,0.3-0.4,0.7-1.2,0.7C177.8,16,177.3,15.3,177.3,14.1z"/>
	<linearGradient id="SVGID_27_" gradientUnits="userSpaceOnUse" x1="8.5633" y1="12.7516" x2="184.0647" y2="12.7516">
		<stop  offset="0" style="stop-color:#F05A28"/>
		<stop  offset="1" style="stop-color:#F6932E"/>
	</linearGradient>
	<path class="st27" d="M185.9,15.2c0,0.4-0.8,0.9-2,0.9c-1.9,0-3.2-1.4-3.2-3.3c0-2.1,1.5-3.4,3.2-3.4c1.5,0,2.6,1,2.6,2.3
		c0,0.4-0.1,0.8-0.2,1c-0.2,0.4-0.4,0.5-0.9,0.5h-3.3c0.1,1.2,1,1.7,2.1,1.7c0.6,0,1.1-0.1,1.6-0.4C185.8,14.8,185.9,15,185.9,15.2z
		 M182.1,12.2h3.1c0.1-0.1,0.1-0.3,0.1-0.4c0-0.8-0.5-1.3-1.4-1.3C182.9,10.5,182.2,11.1,182.1,12.2z"/>
	<linearGradient id="SVGID_28_" gradientUnits="userSpaceOnUse" x1="8.5633" y1="15.2463" x2="184.0647" y2="15.2463">
		<stop  offset="0" style="stop-color:#F05A28"/>
		<stop  offset="1" style="stop-color:#F6932E"/>
	</linearGradient>
	<path class="st28" d="M188.3,15.2c0-0.5,0.3-0.8,0.8-0.8c0.4,0,0.9,0.3,0.9,0.9c0,0.5-0.3,0.8-0.8,0.8
		C188.7,16.1,188.3,15.8,188.3,15.2z"/>
</g>
</svg>
