<?xml version="1.0" encoding="utf-8"?>
<!-- Generator: Adobe Illustrator 21.0.0, SVG Export Plug-In . SVG Version: 6.00 Build 0)  -->
<svg version="1.1" id="Layer_1" xmlns="http://www.w3.org/2000/svg" xmlns:xlink="http://www.w3.org/1999/xlink" x="0px" y="0px"
	 viewBox="0 0 5.2 4.6" style="enable-background:new 0 0 5.2 4.6;" xml:space="preserve">
<style type="text/css">
	.st0{fill:#828282;}
</style>
<path class="st0" d="M0.1,2.3c0,0.1,0,0.1,0.1,0.2c0,0,0,0,0,0l2.2,2c0,0,0.1,0.1,0.2,0.1c0.1,0,0.1,0,0.2-0.1
	c0.1-0.1,0.1-0.3,0-0.4L1,2.5h3.8c0.1,0,0.2-0.1,0.2-0.2S5,2,4.8,2H1l1.7-1.5c0.1-0.1,0.1-0.2,0-0.4c-0.1-0.1-0.3-0.1-0.4,0l-2.2,2
	c0,0,0,0,0,0C0.2,2.2,0.1,2.2,0.1,2.3z"/>
</svg>
