<?xml version="1.0" encoding="utf-8"?>
<!-- Generator: Adobe Illustrator 21.0.0, SVG Export Plug-In . SVG Version: 6.00 Build 0)  -->
<svg version="1.1" id="Layer_1" xmlns="http://www.w3.org/2000/svg" xmlns:xlink="http://www.w3.org/1999/xlink" x="0px" y="0px"
	 viewBox="0 0 5.2 4.6" style="enable-background:new 0 0 5.2 4.6;" xml:space="preserve">
<style type="text/css">
	.st0{fill:#828282;}
</style>
<path class="st0" d="M5.1,2.3c0-0.1,0-0.1-0.1-0.2c0,0,0,0,0,0l-2.2-2c0,0-0.1-0.1-0.2-0.1c-0.1,0-0.1,0-0.2,0.1
	c-0.1,0.1-0.1,0.3,0,0.4L4.2,2H0.4C0.2,2,0.1,2.1,0.1,2.3s0.1,0.2,0.2,0.2h3.8L2.5,4.1c-0.1,0.1-0.1,0.2,0,0.4
	c0.1,0.1,0.3,0.1,0.4,0l2.2-2c0,0,0,0,0,0C5,2.4,5.1,2.4,5.1,2.3z"/>
</svg>
